<svg width="40" height="40" viewBox="0 0 40 40" fill="none" xmlns="http://www.w3.org/2000/svg">
<rect width="40" height="40" rx="1" fill="white"/>
<path d="M20.2363 14.986C21.016 14.986 21.9932 14.4589 22.5752 13.7562C23.1023 13.1193 23.4866 12.2298 23.4866 11.3404C23.4866 11.2196 23.4756 11.0988 23.4537 11C22.5862 11.0329 21.543 11.582 20.9171 12.3177C20.423 12.8777 19.9728 13.7562 19.9728 14.6566C19.9728 14.7884 19.9947 14.9201 20.0057 14.9641C20.0606 14.975 20.1485 14.986 20.2363 14.986ZM17.4911 28.2727C18.5563 28.2727 19.0284 27.559 20.3571 27.559C21.7077 27.559 22.0042 28.2508 23.1901 28.2508C24.3541 28.2508 25.1337 27.1747 25.8694 26.1205C26.693 24.9126 27.0334 23.7267 27.0554 23.6718C26.9785 23.6498 24.7494 22.7384 24.7494 20.1799C24.7494 17.9618 26.5063 16.9625 26.6052 16.8857C25.4412 15.2166 23.6733 15.1727 23.1901 15.1727C21.8834 15.1727 20.8183 15.9633 20.1485 15.9633C19.4237 15.9633 18.4684 15.2166 17.3374 15.2166C15.1852 15.2166 13 16.9955 13 20.3556C13 22.4419 13.8126 24.6491 14.8118 26.0766C15.6683 27.2845 16.415 28.2727 17.4911 28.2727Z" fill="black"/>
</svg>
